<svg t="1752390212715" class="icon" viewBox="0 0 1024 1024" version="1.1" xmlns="http://www.w3.org/2000/svg" p-id="8365" width="200" height="200"><path d="M554.685227 106.666667v85.333333l-1.066667 0.853333A162.752 162.752 0 0 0 469.351893 137.386667V64a42.794667 42.794667 0 0 1 42.666667-42.666667h106.666667a42.794667 42.794667 0 0 1 42.666666 42.666667 41.706667 41.706667 0 0 1-12.586666 30.08A41.706667 41.706667 0 0 1 618.685227 106.666667zM362.685227 128v1.493333a416.106667 416.106667 0 0 0-85.333334 12.8V106.666667h-42.666666a41.706667 41.706667 0 0 1-30.08-12.586667A41.706667 41.706667 0 0 1 192.01856 64a42.794667 42.794667 0 0 1 42.666667-42.666667h85.333333a42.794667 42.794667 0 0 1 42.666667 42.666667z" fill="#CDABA5" p-id="8366"></path><path d="M704.01856 192l-128 106.666667v-42.666667a102.762667 102.762667 0 0 0-22.4-63.146667L554.685227 192zM170.685227 469.333333c35.413333 0 64 18.986667 64 42.666667v1.493333l-31.36 32.213334c-21.76 21.76-78.293333 1.066667-118.4-33.066667L85.351893 512c0-11.733333 38.186667-42.666667 85.333334-42.666667zM64.01856 341.333333c23.68 0 42.666667 28.586667 42.666667 64 0 47.146667-30.933333 85.333333-42.666667 85.333334l-0.64 0.426666c-34.133333-40.106667-54.826667-96.64-33.066667-118.4l32.64-32.426666z" fill="#B0BAC6" p-id="8367"></path><path d="M1002.685227 341.333333c0 117.973333-18.986667 213.333333-42.666667 213.333334v-21.333334a85.333333 85.333333 0 0 0-85.333333-85.333333c0-58.88 57.173333-106.666667 128-106.666667z" fill="#EFF1F4" p-id="8368"></path><path d="M235.751893 639.786667a214.869333 214.869333 0 0 0 127.786667 169.173333L362.685227 810.666667v128h-128V640zM832.01856 832h128v106.666667h-128z" fill="#D7D7D7" p-id="8369"></path><path d="M832.01856 938.666667h128v64h-128zM448.01856 938.666667h128v64h-128zM234.685227 938.666667h128v64h-128z" fill="#B0BAC6" p-id="8370"></path><path d="M469.351893 137.386667a162.752 162.752 0 0 1 84.266667 55.466666A102.762667 102.762667 0 0 1 576.01856 256v149.333333a42.794667 42.794667 0 0 0 42.666667 42.666667h256a85.333333 85.333333 0 0 1 85.333333 85.333333v298.666667H576.01856v106.666667h-128v-107.733334a255.637333 255.637333 0 0 1-84.48-21.973333 214.869333 214.869333 0 0 1-127.786667-169.173333c-0.64-7.04-1.066667-14.08-1.066666-21.12v-106.666667c0-23.68-28.586667-42.666667-64-42.666667-47.146667 0-85.333333 30.933333-85.333334 42.666667l-0.426666 0.64a128.810667 128.810667 0 0 1-11.306667-10.24 128.810667 128.810667 0 0 1-10.24-11.306667L64.01856 490.666667c11.733333 0 42.666667-38.186667 42.666667-85.333334 0-35.413333-18.986667-64-42.666667-64l-1.066667-1.066666 107.52-106.026667L234.685227 170.666667c0-10.88 16.213333-20.693333 42.666666-28.373334a416.106667 416.106667 0 0 1 85.333334-12.8c13.653333-1.066667 27.946667-1.493333 42.666666-1.493333a214.912 214.912 0 0 1 64 9.386667z" fill="#D7D7D7" p-id="8371"></path><path d="M256.01856 149.333333H128.01856l42.666667 85.333334" fill="#B0BAC6" p-id="8372"></path><path d="M960.01856 1024h-128a21.333333 21.333333 0 0 1-21.333333-21.333333v-170.666667h42.666666v149.333333h85.333334v-149.333333h42.666666v170.666667a21.333333 21.333333 0 0 1-21.333333 21.333333zM362.685227 1024h-128a21.333333 21.333333 0 0 1-21.333334-21.333333V640h42.666667v341.333333h85.333333v-170.666666h42.666667v192a21.333333 21.333333 0 0 1-21.333333 21.333333z" fill="#2A3244" p-id="8373"></path><path d="M576.01856 1024h-128a21.333333 21.333333 0 0 1-21.333333-21.333333v-152.810667a276.693333 276.693333 0 0 1-71.978667-21.482667 234.901333 234.901333 0 0 1-140.16-186.24c-0.746667-8.106667-1.194667-15.786667-1.194667-23.466666v-105.173334c0-10.197333-16.618667-22.826667-42.666666-22.826666a89.856 89.856 0 0 0-65.130667 26.794666A11.605333 11.605333 0 0 0 106.685227 512H64.01856c0-30.506667 55.829333-64 106.666667-64 47.850667 0 85.333333 28.096 85.333333 64v106.666667c0 6.4 0.405333 12.8 0.981333 19.2a192.512 192.512 0 0 0 115.456 151.722666 234.496 234.496 0 0 0 77.354667 20.096 21.333333 21.333333 0 0 1 19.541333 21.333334V981.333333h85.333334v-149.333333a21.333333 21.333333 0 0 1 21.333333-21.333333h362.666667V533.333333a64 64 0 0 0-64-64H618.685227a64 64 0 0 1-64-64v-149.333333h42.666666v149.333333a21.333333 21.333333 0 0 0 21.333334 21.333334h256a106.794667 106.794667 0 0 1 106.666666 106.666666v298.666667a21.333333 21.333333 0 0 1-21.333333 21.333333H597.351893v149.333334a21.333333 21.333333 0 0 1-21.333333 21.333333zM832.01856 917.333333h128v42.666667h-128z" fill="#2A3244" p-id="8374"></path><path d="M448.01856 917.333333h128v42.666667h-128zM234.685227 917.333333h128v42.666667h-128zM597.351893 256h-42.666666a81.066667 81.066667 0 0 0-17.962667-50.133333 141.973333 141.973333 0 0 0-73.450667-48A194.773333 194.773333 0 0 0 405.351893 149.333333V106.666667a236.437333 236.437333 0 0 1 70.4 10.346666 184.298667 184.298667 0 0 1 94.954667 62.997334A124.202667 124.202667 0 0 1 597.351893 256zM64.01856 512v-42.666667a11.498667 11.498667 0 0 0-5.461333 1.130667A89.856 89.856 0 0 0 85.351893 405.333333c0-26.048-12.629333-42.666667-21.333333-42.666666v-42.666667c35.882667 0 64 37.482667 64 85.333333 0 50.837333-33.493333 106.666667-64 106.666667zM256.01856 341.333333h85.333333v42.666667h-85.333333zM192.01856 234.666667h42.666667v85.333333H192.01856z" fill="#2A3244" p-id="8375"></path><path d="M177.447893 576a181.504 181.504 0 0 1-106.346666-46.933333 147.008 147.008 0 0 1-12.565334-11.413334 142.933333 142.933333 0 0 1-11.904-13.205333C7.18656 457.984-17.560107 390.4 15.207893 357.610667L215.079893 160c8.256-24.298667 43.669333-34.581333 56.32-38.250667a435.349333 435.349333 0 0 1 90.069334-13.610666A590.314667 590.314667 0 0 1 405.351893 106.666667v42.666666c-15.424 0-28.821333 0.469333-40.981333 1.429334a402.709333 402.709333 0 0 0-81.28 12.074666 80.853333 80.853333 0 0 0-27.456 11.84 21.525333 21.525333 0 0 1-5.930667 11.157334L45.351893 387.84c-7.914667 7.893333 0.853333 50.133333 34.282667 89.408a111.850667 111.850667 0 0 0 9.045333 10.048 110.144 110.144 0 0 0 9.493334 8.533333c39.850667 33.92 82.090667 42.666667 90.069333 34.709334l95.189333-97.472 30.506667 29.866666-95.338667 97.664A56.106667 56.106667 0 0 1 177.447893 576zM256.01856 170.666667zM589.671893 315.072l-27.306666-32.810667L645.095893 213.333333H554.685227V170.666667h149.333333a21.333333 21.333333 0 0 1 13.653333 37.738666z" fill="#2A3244" p-id="8376"></path><path d="M576.01856 192h-42.666667V106.666667a21.333333 21.333333 0 0 1 21.333334-21.333334h64a20.586667 20.586667 0 0 0 14.805333-6.122666A20.864 20.864 0 0 0 640.01856 64a21.333333 21.333333 0 0 0-21.333333-21.333333h-106.666667a21.333333 21.333333 0 0 0-21.333333 21.333333v85.333333h-42.666667V64a64 64 0 0 1 64-64h106.666667a64 64 0 0 1 64 64 62.805333 62.805333 0 0 1-19.029334 45.354667A62.336 62.336 0 0 1 618.685227 128h-42.666667zM298.685227 149.333333h-42.666667V128h-21.333333a62.613333 62.613333 0 0 1-45.354667-19.050667A62.378667 62.378667 0 0 1 170.685227 64a64 64 0 0 1 64-64h85.333333a64 64 0 0 1 64 64v64h-42.666667V64a21.333333 21.333333 0 0 0-21.333333-21.333333h-85.333333a21.333333 21.333333 0 0 0-21.333334 21.333333 20.416 20.416 0 0 0 6.144 14.805333A20.864 20.864 0 0 0 234.685227 85.333333h42.666666a21.333333 21.333333 0 0 1 21.333334 21.333334z" fill="#2A3244" p-id="8377"></path><path d="M151.591893 244.202667l-42.666666-85.333334A21.333333 21.333333 0 0 1 128.01856 128h128v42.666667H162.535893l27.029334 54.037333zM960.01856 576v-42.666667a10.410667 10.410667 0 0 0-6.613333 2.133334c9.088-8.682667 25.6-67.114667 27.733333-171.008C932.605227 372.416 896.01856 406.848 896.01856 448h-42.666667c0-70.592 66.986667-128 149.333334-128a21.333333 21.333333 0 0 1 21.333333 21.333333c0 70.570667-6.229333 234.666667-64 234.666667zM106.685227 704H64.01856a63.04 63.04 0 0 1 14.933333-41.152 21.717333 21.717333 0 0 0 6.4-15.808 21.333333 21.333333 0 0 0-6.4-15.552 64.512 64.512 0 0 1 0-82.602667A21.333333 21.333333 0 0 0 85.351893 533.333333h42.666667a63.04 63.04 0 0 1-14.933333 41.152 21.717333 21.717333 0 0 0-6.4 15.808 21.333333 21.333333 0 0 0 6.4 15.552 64.512 64.512 0 0 1 0 82.602667A21.333333 21.333333 0 0 0 106.685227 704z" fill="#2A3244" p-id="8378"></path><path d="M170.685227 725.333333H128.01856a63.04 63.04 0 0 1 14.933333-41.152 21.717333 21.717333 0 0 0 6.4-15.808 21.333333 21.333333 0 0 0-6.4-15.552 64.512 64.512 0 0 1 0-82.602666A21.333333 21.333333 0 0 0 149.351893 554.666667h42.666667a63.04 63.04 0 0 1-14.933333 41.152 21.717333 21.717333 0 0 0-6.4 15.808 21.333333 21.333333 0 0 0 6.4 15.552 64.512 64.512 0 0 1 0 82.602666A21.333333 21.333333 0 0 0 170.685227 725.333333z" fill="#2A3244" p-id="8379"></path></svg>